<?xml version="1.0" encoding="utf-8"?>
<!-- Generator: Adobe Illustrator 25.2.1, SVG Export Plug-In . SVG Version: 6.00 Build 0)  -->
<svg version="1.1" id="Layer_1" xmlns="http://www.w3.org/2000/svg" xmlns:xlink="http://www.w3.org/1999/xlink" x="0px" y="0px"
	 viewBox="0 0 177.82 103.58" style="enable-background:new 0 0 177.82 103.58;" xml:space="preserve">
<style type="text/css">
	.st0{fill:#EAE3D8;}
	.st1{fill:#222222;}
	.st2{fill:#FF6D35;}
</style>
<g>
	<path class="st0" d="M177.82,8.89v44.93c0,3.38-1.87,6.31-4.65,7.82c-0.24,0.15-0.5,0.27-0.77,0.38l-79.25,40.48
		c-0.09,0.03-0.18,0.09-0.3,0.15c-1.19,0.59-2.52,0.92-3.94,0.92c-1.42,0-2.76-0.33-3.94-0.92c-0.12-0.06-0.21-0.12-0.3-0.15
		L5.42,62.03c-0.27-0.12-0.53-0.23-0.77-0.38C1.87,60.13,0,57.2,0,53.82V8.89C0,3.97,3.97,0,8.89,0h160.04
		C173.85,0,177.82,3.97,177.82,8.89z"/>
	<path class="st1" d="M168.93,1.56c4.04,0,7.33,3.29,7.33,7.33v44.93c0,2.7-1.47,5.17-3.92,6.5c-0.16,0.1-0.34,0.17-0.51,0.25
		c-0.02,0.01-0.11,0.05-0.13,0.06l-79.2,40.46c-0.09,0.04-0.19,0.09-0.34,0.17c-1,0.5-2.09,0.75-3.24,0.75
		c-1.15,0-2.24-0.25-3.33-0.8c-0.09-0.05-0.17-0.09-0.25-0.13L6.13,60.64C6.11,60.63,6.02,60.59,6,60.58
		c-0.18-0.08-0.36-0.15-0.6-0.3c-2.37-1.28-3.84-3.76-3.84-6.45V8.89c0-4.04,3.29-7.33,7.33-7.33H168.93 M168.93,0H8.89
		C3.97,0,0,3.97,0,8.89v44.93c0,3.38,1.87,6.31,4.65,7.82c0.24,0.15,0.5,0.27,0.77,0.38l79.25,40.48c0.09,0.03,0.18,0.09,0.3,0.15
		c1.19,0.59,2.52,0.92,3.94,0.92c1.42,0,2.76-0.33,3.94-0.92c0.12-0.06,0.21-0.12,0.3-0.15l79.25-40.48
		c0.27-0.12,0.53-0.23,0.77-0.38c2.79-1.51,4.65-4.45,4.65-7.82V8.89C177.82,3.97,173.85,0,168.93,0L168.93,0z"/>
	<g>
		<path class="st1" d="M18.6,11.03v31.89h-5.55V29.53h-1.66v13.39H5.83V11.03h5.55v11.4h1.66v-11.4H18.6z"/>
		<path class="st1" d="M33.51,29.71c0,3.2-0.05,5.47-0.15,6.81c-0.1,1.33-0.42,2.55-0.95,3.65c-0.53,1.1-1.25,1.95-2.16,2.54
			c-0.91,0.59-1.96,0.89-3.16,0.89c-1.14,0-2.17-0.28-3.08-0.84c-0.91-0.56-1.64-1.4-2.2-2.51c-0.55-1.12-0.88-2.33-0.99-3.64
			c-0.11-1.31-0.16-3.61-0.16-6.89v-5.46c0-3.2,0.05-5.47,0.15-6.81c0.1-1.33,0.42-2.55,0.95-3.65c0.53-1.1,1.25-1.95,2.16-2.54
			c0.91-0.59,1.96-0.89,3.16-0.89c1.14,0,2.17,0.28,3.08,0.84c0.91,0.56,1.64,1.4,2.2,2.51c0.55,1.12,0.88,2.33,0.99,3.64
			c0.11,1.31,0.16,3.61,0.16,6.89V29.71z M27.96,19.23c0-1.48-0.06-2.43-0.16-2.85c-0.11-0.41-0.34-0.62-0.68-0.62
			c-0.29,0-0.51,0.17-0.67,0.5c-0.15,0.34-0.23,1.32-0.23,2.96v14.89c0,1.85,0.05,2.99,0.15,3.43c0.1,0.43,0.34,0.65,0.71,0.65
			c0.38,0,0.62-0.25,0.73-0.75c0.11-0.5,0.16-1.69,0.16-3.57V19.23z"/>
		<path class="st1" d="M52.71,11.03v31.89h-4.85L47.85,21.4l-1.93,21.53h-3.44l-2.04-21.04l-0.01,21.04h-4.85V11.03h7.18
			c0.21,1.92,0.43,4.18,0.66,6.78l0.79,8.11l1.28-14.89H52.71z"/>
		<path class="st1" d="M54.94,11.03h9.26v6.38h-3.71v6.05h3.47v6.07h-3.47v7.01h4.07v6.38h-9.63V11.03z"/>
	</g>
	<g>
		<path class="st1" d="M70.92,11.03h5.59c1.51,0,2.67,0.18,3.49,0.53c0.81,0.35,1.42,0.87,1.83,1.54c0.41,0.67,0.69,1.48,0.83,2.43
			c0.15,0.95,0.22,2.43,0.22,4.42v2.78c0,2.04-0.14,3.52-0.42,4.45c-0.28,0.93-0.8,1.65-1.55,2.15c-0.75,0.5-1.73,0.75-2.95,0.75
			h-1.49v12.84h-5.55V11.03z M76.47,16.49v8.12c0.16,0.01,0.29,0.02,0.41,0.02c0.51,0,0.86-0.19,1.06-0.56
			c0.2-0.37,0.3-1.15,0.3-2.33v-2.62c0-1.09-0.11-1.8-0.34-2.13C77.67,16.66,77.2,16.49,76.47,16.49z"/>
		<path class="st1" d="M97.24,11.03v31.89h-5.55V29.53h-1.66v13.39h-5.55V11.03h5.55v11.4h1.66v-11.4H97.24z"/>
		<path class="st1" d="M111.3,11.03l-4.05,20.35v11.54h-5.14V31.38l-3.9-20.35h5.1c0.8,6.22,1.25,10.41,1.35,12.57
			c0.31-3.4,0.82-7.59,1.55-12.57H111.3z"/>
		<path class="st1" d="M124.01,20.69h-5.16v-2.36c0-1.1-0.07-1.81-0.2-2.11c-0.13-0.3-0.35-0.45-0.66-0.45
			c-0.33,0-0.59,0.2-0.76,0.61s-0.26,1.03-0.26,1.85c0,1.06,0.1,1.87,0.29,2.4c0.18,0.54,0.71,1.19,1.57,1.95
			c2.47,2.19,4.03,3.99,4.67,5.39c0.64,1.41,0.96,3.67,0.96,6.8c0,2.27-0.18,3.95-0.53,5.02c-0.36,1.08-1.04,1.98-2.06,2.71
			c-1.02,0.73-2.21,1.09-3.56,1.09c-1.49,0-2.75-0.42-3.8-1.26c-1.05-0.84-1.74-1.91-2.06-3.21c-0.33-1.3-0.49-3.14-0.49-5.53V31.5
			h5.16v3.88c0,1.2,0.07,1.96,0.22,2.3c0.15,0.34,0.4,0.51,0.77,0.51c0.37,0,0.64-0.22,0.82-0.65c0.18-0.43,0.27-1.08,0.27-1.93
			c0-1.88-0.17-3.11-0.51-3.68c-0.35-0.58-1.22-1.54-2.6-2.9c-1.38-1.37-2.29-2.36-2.74-2.97c-0.45-0.62-0.82-1.47-1.11-2.56
			c-0.29-1.09-0.44-2.48-0.44-4.18c0-2.44,0.21-4.23,0.63-5.36c0.42-1.13,1.09-2.01,2.02-2.65c0.93-0.64,2.06-0.96,3.38-0.96
			c1.44,0,2.67,0.35,3.69,1.04c1.02,0.7,1.69,1.57,2.02,2.63c0.33,1.06,0.49,2.85,0.49,5.39V20.69z"/>
		<path class="st1" d="M131.77,11.03v31.89h-5.55V11.03H131.77z"/>
		<path class="st1" d="M146.96,24.92h-5.55v-5.54c0-1.61-0.06-2.62-0.18-3.02c-0.12-0.4-0.38-0.6-0.78-0.6
			c-0.46,0-0.75,0.24-0.87,0.73c-0.12,0.49-0.18,1.54-0.18,3.15v14.81c0,1.55,0.06,2.56,0.18,3.03c0.12,0.47,0.4,0.71,0.83,0.71
			c0.41,0,0.68-0.24,0.81-0.71c0.13-0.47,0.19-1.59,0.19-3.34v-4.01h5.55v1.24c0,3.3-0.16,5.64-0.47,7.02
			c-0.31,1.38-1,2.59-2.07,3.63c-1.07,1.04-2.38,1.56-3.95,1.56c-1.63,0-2.97-0.44-4.02-1.32s-1.75-2.1-2.1-3.65
			c-0.34-1.56-0.51-3.9-0.51-7.02v-9.32c0-2.3,0.05-4.02,0.16-5.17c0.11-1.15,0.42-2.26,0.94-3.32c0.52-1.06,1.25-1.9,2.18-2.51
			c0.93-0.61,1.99-0.92,3.2-0.92c1.64,0,2.98,0.47,4.05,1.42c1.06,0.94,1.76,2.12,2.1,3.53c0.33,1.41,0.5,3.6,0.5,6.58V24.92z"/>
		<path class="st1" d="M158.54,11.03l3.17,31.89h-5.67l-0.3-5.73h-1.99l-0.33,5.73h-5.74l2.83-31.89H158.54z M155.6,31.54
			c-0.28-3.61-0.56-8.08-0.85-13.39c-0.57,6.11-0.92,10.57-1.07,13.39H155.6z"/>
		<path class="st1" d="M168.21,11.03v25.51h3.38v6.38h-8.93V11.03H168.21z"/>
	</g>
	<g>
		<path class="st2" d="M172.07,53.96c-0.08,1.07-0.67,2.01-1.64,2.52c-0.08,0.03-0.13,0.05-0.18,0.1l-0.21,0.08
			c-0.08,0.05-0.18,0.08-0.26,0.13l-52.29,26.72l-1.28,0.65l-5.48,2.8l-2.2,1.12l-3.6,1.84L100.88,92l-2.24,1.15l-5.43,2.77
			l-2.52,1.28c-0.21,0.08-0.36,0.16-0.41,0.21c-0.41,0.21-0.88,0.31-1.38,0.31c-0.52,0-0.98-0.1-1.35-0.28
			c-0.08-0.05-0.26-0.16-0.47-0.23l-2.52-1.28l-5.43-2.77L76.91,92l-4.04-2.07l-3.61-1.84l-2.2-1.12l-5.48-2.8l-1.28-0.65
			L8.01,56.79c-0.08-0.05-0.27-0.13-0.34-0.16l-0.1-0.05c-0.08-0.05-0.13-0.08-0.21-0.1c-0.96-0.52-1.53-1.46-1.61-2.52H172.07z"/>
		<polygon class="st0" points="98.64,93.15 93.22,95.92 84.58,95.92 79.15,93.15 		"/>
		<polygon class="st0" points="104.93,89.94 100.88,92 76.91,92 72.87,89.94 		"/>
		<polygon class="st0" points="110.73,86.97 108.53,88.09 69.26,88.09 67.06,86.97 		"/>
		<polygon class="st0" points="117.49,83.52 116.21,84.17 61.58,84.17 60.31,83.52 		"/>
		<path class="st0" d="M111.96,70.9c0,3.46-2.98,2.21-3.45,2.99c-0.48,0.78,0.31,3.45-4.24,3.45c-4.14,0-4.52-0.25-4.56-0.3
			c0.05,0.15,0.52,1.97-1.73,4.07c-1.18,1.1-2.05,1.69-2.62,2.06c-0.56,0.38-0.84,0.54-0.84,0.77c0,1.04-0.85,1.89-1.89,1.89h-7.48
			c-0.52,0-1-0.21-1.34-0.55c-0.35-0.34-0.55-0.82-0.55-1.34c0-0.48-1.1-0.64-3.46-2.83c-2.26-2.1-1.78-3.91-1.74-4.07
			c-0.03,0.04-0.41,0.3-4.55,0.3c-4.55,0-3.76-2.66-4.24-3.45c-0.47-0.78-3.46,0.47-3.46-2.99s5.27-8.88,6.61-10.2
			c1.34-1.35,2.82-1.26,4.24-1.26c1.41,0,1.09,2.19,1.09,2.19s0.16,1.42-1.73,1.42c-1.88,0-2.04-1.1-2.04-1.1
			c-1.1,0.94-1.26,1.89-1.73,3.61c-0.48,1.73,0.78,2.99,0.78,3.46c0,0.48,0.47-0.78,2.2-0.78c1.73,0,1.57,2.36,2.67,0.78
			c1.1-1.57,2.67-2.19,4.4-0.93c1.73,1.25,2.2,1.09,3.3,0.15c1.09-0.94,0.78-3.14,0.78-3.45c0-0.32-0.78-0.16-0.78-3.93
			c0-3.76,3.27-3.62,3.27-3.62s3.28-0.15,3.28,3.62c0,3.78-0.78,3.62-0.78,3.93c0,0.31-0.32,2.5,0.78,3.45
			c1.09,0.94,1.57,1.1,3.3-0.15c1.73-1.26,3.3-0.64,4.4,0.93c1.09,1.58,0.94-0.78,2.67-0.78s2.2,1.26,2.2,0.78
			c0-0.47,1.25-1.73,0.78-3.46c-0.48-1.72-0.63-2.66-1.73-3.61c0,0-0.16,1.1-2.05,1.1c-1.88,0-1.73-1.42-1.73-1.42
			s-0.31-2.19,1.1-2.19c1.42,0,2.91-0.08,4.24,1.26C106.7,62.03,111.96,67.45,111.96,70.9z"/>
	</g>
</g>
</svg>
