<?xml version="1.0" encoding="utf-8"?>
<!-- Generator: Adobe Illustrator 25.2.1, SVG Export Plug-In . SVG Version: 6.00 Build 0)  -->
<svg version="1.1" id="Layer_1" xmlns="http://www.w3.org/2000/svg" xmlns:xlink="http://www.w3.org/1999/xlink" x="0px" y="0px"
	 viewBox="0 0 223.86 126.87" style="enable-background:new 0 0 223.86 126.87;" xml:space="preserve">
<style type="text/css">
	.st0{fill:#FFFFFF;}
	.st1{fill:#222222;}
</style>
<path class="st0" d="M219.71,11.48v54.28c0,4.08-2.26,7.63-5.62,9.45c-0.29,0.18-0.61,0.32-0.93,0.47l-95.74,48.91
	c-0.11,0.04-0.22,0.11-0.36,0.18c-1.43,0.72-3.04,1.11-4.76,1.11c-1.72,0-3.33-0.4-4.76-1.11c-0.14-0.07-0.25-0.14-0.36-0.18
	L11.43,75.68c-0.32-0.14-0.64-0.28-0.93-0.47c-3.37-1.83-5.62-5.37-5.62-9.45V11.48c0-5.94,4.8-10.74,10.74-10.74h193.35
	C214.91,0.74,219.71,5.53,219.71,11.48z"/>
<path class="st1" d="M208.97,2.62c4.88,0,8.86,3.97,8.86,8.86v54.28c0,3.26-1.78,6.24-4.74,7.86c-0.19,0.12-0.41,0.21-0.62,0.31
	c-0.03,0.01-0.13,0.06-0.16,0.08l-95.68,48.88c-0.11,0.05-0.23,0.11-0.41,0.2c-1.21,0.6-2.53,0.91-3.92,0.91
	c-1.39,0-2.71-0.31-4.02-0.97c-0.11-0.06-0.21-0.11-0.31-0.15L12.28,74c-0.03-0.02-0.13-0.06-0.16-0.08
	c-0.21-0.1-0.43-0.19-0.73-0.37C8.53,72,6.76,69.02,6.76,65.76V11.48c0-4.88,3.97-8.86,8.86-8.86H208.97 M208.97,0.74H15.61
	c-5.94,0-10.74,4.8-10.74,10.74v54.28c0,4.08,2.26,7.63,5.62,9.45c0.29,0.18,0.61,0.32,0.93,0.46l95.74,48.91
	c0.11,0.04,0.21,0.11,0.36,0.18c1.43,0.72,3.04,1.11,4.76,1.11c1.72,0,3.33-0.39,4.76-1.11c0.14-0.07,0.25-0.14,0.36-0.18
	l95.74-48.91c0.32-0.14,0.64-0.28,0.93-0.46c3.36-1.83,5.62-5.37,5.62-9.45V11.48C219.71,5.53,214.91,0.74,208.97,0.74L208.97,0.74z
	"/>
<g>
	<path class="st1" d="M27.34,14.07V52.6h-6.71V36.41h-2.01V52.6h-6.71V14.07h6.71v13.78h2.01V14.07H27.34z"/>
	<path class="st1" d="M45.36,36.63c0,3.87-0.06,6.61-0.18,8.22c-0.12,1.61-0.5,3.08-1.15,4.41c-0.64,1.33-1.51,2.36-2.6,3.07
		c-1.09,0.71-2.37,1.07-3.82,1.07c-1.38,0-2.62-0.34-3.72-1.01c-1.1-0.67-1.98-1.69-2.65-3.03c-0.67-1.35-1.07-2.82-1.19-4.4
		c-0.13-1.59-0.19-4.36-0.19-8.33v-6.59c0-3.87,0.06-6.61,0.18-8.22c0.12-1.61,0.5-3.08,1.15-4.41c0.64-1.33,1.51-2.36,2.6-3.07
		c1.09-0.71,2.37-1.07,3.82-1.07c1.38,0,2.62,0.34,3.72,1.01c1.1,0.67,1.98,1.69,2.65,3.03c0.67,1.35,1.07,2.82,1.19,4.4
		c0.13,1.59,0.19,4.36,0.19,8.33V36.63z M38.66,23.97c0-1.79-0.07-2.94-0.2-3.44c-0.13-0.5-0.41-0.75-0.82-0.75
		c-0.35,0-0.62,0.2-0.8,0.61c-0.19,0.41-0.28,1.6-0.28,3.58v17.99c0,2.24,0.06,3.62,0.18,4.14c0.12,0.52,0.41,0.79,0.85,0.79
		c0.46,0,0.75-0.3,0.88-0.9c0.13-0.6,0.19-2.04,0.19-4.31V23.97z"/>
	<path class="st1" d="M68.56,14.07V52.6H62.7l-0.01-26.01L60.35,52.6H56.2l-2.46-25.42L53.73,52.6h-5.86V14.07h8.68
		c0.26,2.32,0.52,5.05,0.8,8.19l0.95,9.8l1.54-17.99H68.56z"/>
	<path class="st1" d="M71.25,14.07h11.18v7.71h-4.48v7.31h4.19v7.33h-4.19v8.47h4.92v7.71H71.25V14.07z"/>
</g>
<g>
	<path class="st1" d="M90.56,14.07h6.75c1.83,0,3.23,0.21,4.21,0.64c0.98,0.43,1.72,1.05,2.21,1.86c0.49,0.81,0.83,1.79,1,2.94
		c0.18,1.15,0.26,2.93,0.26,5.34v3.36c0,2.46-0.17,4.25-0.51,5.38c-0.34,1.13-0.96,1.99-1.87,2.59c-0.91,0.6-2.09,0.9-3.56,0.9h-1.8
		V52.6h-6.71V14.07z M97.27,20.66v9.8c0.19,0.02,0.36,0.02,0.49,0.02c0.62,0,1.04-0.23,1.28-0.68c0.24-0.45,0.36-1.39,0.36-2.82
		v-3.17c0-1.32-0.14-2.17-0.41-2.57C98.71,20.86,98.14,20.66,97.27,20.66z"/>
	<path class="st1" d="M122.36,14.07V52.6h-6.71V36.41h-2.01V52.6h-6.71V14.07h6.71v13.78h2.01V14.07H122.36z"/>
	<path class="st1" d="M139.34,14.07l-4.89,24.58V52.6h-6.21V38.65l-4.72-24.58h6.16c0.96,7.52,1.51,12.58,1.63,15.18
		c0.37-4.11,0.99-9.17,1.87-15.18H139.34z"/>
	<path class="st1" d="M154.7,25.73h-6.23v-2.86c0-1.33-0.08-2.18-0.24-2.55c-0.16-0.36-0.43-0.55-0.8-0.55
		c-0.4,0-0.71,0.25-0.92,0.74s-0.31,1.24-0.31,2.24c0,1.29,0.12,2.26,0.35,2.91c0.22,0.65,0.85,1.44,1.9,2.36
		c2.99,2.65,4.87,4.82,5.64,6.52c0.78,1.7,1.16,4.43,1.16,8.21c0,2.75-0.22,4.77-0.65,6.07c-0.43,1.3-1.26,2.39-2.49,3.27
		c-1.23,0.88-2.67,1.32-4.3,1.32c-1.8,0-3.33-0.51-4.6-1.52c-1.27-1.01-2.1-2.31-2.49-3.88c-0.39-1.57-0.59-3.8-0.59-6.69v-2.52
		h6.23v4.69c0,1.44,0.09,2.37,0.26,2.78c0.18,0.41,0.49,0.62,0.93,0.62c0.45,0,0.78-0.26,1-0.79c0.22-0.52,0.33-1.3,0.33-2.33
		c0-2.27-0.21-3.75-0.62-4.45c-0.43-0.7-1.47-1.86-3.14-3.5c-1.67-1.65-2.77-2.85-3.31-3.59c-0.54-0.75-0.99-1.78-1.35-3.09
		c-0.36-1.32-0.53-3-0.53-5.05c0-2.95,0.25-5.11,0.76-6.47c0.5-1.36,1.32-2.43,2.45-3.2c1.13-0.77,2.49-1.15,4.08-1.15
		c1.74,0,3.23,0.42,4.45,1.26c1.23,0.84,2.04,1.9,2.44,3.18c0.4,1.28,0.6,3.45,0.6,6.51V25.73z"/>
	<path class="st1" d="M164.07,14.07V52.6h-6.71V14.07H164.07z"/>
	<path class="st1" d="M182.42,30.84h-6.71v-6.7c0-1.95-0.07-3.16-0.22-3.64c-0.14-0.48-0.46-0.72-0.95-0.72
		c-0.55,0-0.9,0.29-1.05,0.88c-0.15,0.59-0.22,1.86-0.22,3.81v17.9c0,1.87,0.07,3.09,0.22,3.66c0.15,0.57,0.48,0.86,1,0.86
		c0.5,0,0.83-0.29,0.98-0.86c0.15-0.57,0.23-1.92,0.23-4.03v-4.84h6.71v1.5c0,3.99-0.19,6.82-0.57,8.48
		c-0.38,1.67-1.21,3.13-2.5,4.39c-1.29,1.26-2.88,1.88-4.77,1.88c-1.96,0-3.58-0.53-4.86-1.59c-1.27-1.06-2.12-2.53-2.53-4.41
		c-0.41-1.88-0.62-4.71-0.62-8.48V27.66c0-2.78,0.06-4.86,0.19-6.25c0.13-1.39,0.51-2.73,1.14-4.01c0.63-1.29,1.51-2.3,2.63-3.03
		c1.12-0.74,2.41-1.11,3.86-1.11c1.98,0,3.61,0.57,4.89,1.71c1.29,1.14,2.13,2.56,2.53,4.27c0.4,1.7,0.61,4.35,0.61,7.95V30.84z"/>
	<path class="st1" d="M196.42,14.07l3.84,38.53h-6.85l-0.36-6.93h-2.4l-0.4,6.93h-6.93l3.42-38.53H196.42z M192.87,38.84
		c-0.34-4.36-0.68-9.76-1.02-16.18c-0.68,7.38-1.11,12.77-1.29,16.18H192.87z"/>
	<path class="st1" d="M208.1,14.07v30.82h4.08v7.71H201.4V14.07H208.1z"/>
</g>
<path class="st1" d="M212.76,65.93c-0.09,1.29-0.81,2.42-1.98,3.05c-0.09,0.03-0.16,0.06-0.22,0.13l-0.25,0.09
	c-0.09,0.06-0.22,0.09-0.31,0.16l-63.18,32.29l-1.55,0.79l-6.62,3.38l-2.65,1.35l-4.35,2.23l-4.89,2.5l-2.71,1.38l-6.56,3.35
	l-3.04,1.55c-0.25,0.09-0.44,0.19-0.5,0.25c-0.5,0.25-1.06,0.37-1.67,0.37c-0.62,0-1.19-0.13-1.63-0.34
	c-0.09-0.06-0.31-0.19-0.56-0.28l-3.04-1.55l-6.56-3.35l-2.71-1.38l-4.88-2.5l-4.36-2.23l-2.65-1.35l-6.62-3.38l-1.54-0.79
	L14.56,69.35c-0.09-0.06-0.32-0.16-0.42-0.19l-0.13-0.06c-0.09-0.06-0.16-0.09-0.25-0.13c-1.16-0.62-1.85-1.76-1.95-3.05H212.76z"/>
<g>
	<polygon class="st0" points="124.05,113.28 117.49,116.63 107.06,116.63 100.5,113.28 	"/>
	<polygon class="st0" points="131.65,109.39 126.76,111.89 97.79,111.89 92.91,109.39 	"/>
	<polygon class="st0" points="138.65,105.81 136,107.17 88.55,107.17 85.89,105.81 	"/>
	<path class="st0" d="M146.83,101.64l-1.55,0.79h-26.22c-0.13,1.13-1.09,2.01-2.26,2.01h-9.03c-0.63,0-1.21-0.26-1.62-0.67
		c-0.36-0.35-0.59-0.82-0.64-1.34H79.28l-1.54-0.79h27.35c-0.59-0.43-1.83-1.09-3.78-2.9c-2.73-2.54-2.15-4.73-2.1-4.92
		c-0.04,0.05-0.5,0.36-5.5,0.36c-5.49,0-4.54-3.22-5.12-4.17c-0.56-0.94-4.18,0.57-4.18-3.61c0-4.17,6.37-10.72,7.98-12.32
		c1.62-1.63,3.41-1.53,5.13-1.53c1.7,0,1.32,2.65,1.32,2.65s0.19,1.72-2.09,1.72c-2.27,0-2.46-1.33-2.46-1.33
		c-1.33,1.14-1.52,2.28-2.09,4.35c-0.57,2.09,0.95,3.62,0.95,4.18c0,0.58,0.56-0.95,2.65-0.95c2.09,0,1.9,2.86,3.23,0.95
		c1.33-1.89,3.23-2.65,5.32-1.13s2.65,1.32,3.98,0.18c1.32-1.14,0.95-3.79,0.95-4.16c0-0.38-0.95-0.19-0.95-4.75
		c0-4.55,3.95-4.37,3.95-4.37s3.96-0.18,3.96,4.37c0,4.56-0.95,4.37-0.95,4.75c0,0.37-0.39,3.02,0.95,4.16
		c1.32,1.14,1.89,1.34,3.98-0.18c2.09-1.52,3.98-0.76,5.32,1.13c1.32,1.91,1.14-0.95,3.23-0.95c2.08,0,2.65,1.53,2.65,0.95
		c0-0.56,1.51-2.09,0.95-4.18c-0.58-2.07-0.76-3.21-2.09-4.35c0,0-0.2,1.33-2.48,1.33c-2.26,0-2.08-1.72-2.08-1.72
		s-0.38-2.65,1.33-2.65c1.72,0,3.51-0.1,5.12,1.53c1.62,1.6,7.97,8.15,7.97,12.32c0,4.18-3.6,2.67-4.16,3.61
		c-0.58,0.95,0.37,4.17-5.13,4.17c-4.99,0-5.45-0.31-5.51-0.36c0.07,0.18,0.63,2.38-2.08,4.92c-1.43,1.33-2.48,2.04-3.17,2.48
		c-0.25,0.17-0.45,0.3-0.6,0.42H146.83z"/>
</g>
</svg>
